<svg width="1304" height="200" viewBox="0 0 1304 200" fill="none" xmlns="http://www.w3.org/2000/svg">
<g clip-path="url(#clip0_102_2)">
<rect width="1304" height="200" fill="white"/>
<path d="M388.813 162.398C387.752 162.133 386.054 162 383.719 162H358.33C353.236 162 349.973 161.098 348.541 159.294C347.957 158.604 347.665 157.808 347.665 156.906C347.665 154.678 348.09 153.033 348.938 151.972C350.212 152.396 351.671 152.608 353.316 152.608C354.961 152.608 356.181 151.945 356.977 150.619C357.773 149.292 358.144 146.825 358.091 143.217V44.605C358.091 40.9438 357.72 38.5827 356.977 37.5215C355.863 35.8236 353.9 34.9746 351.087 34.9746H349.496C349.018 34.9746 348.461 35.0542 347.824 35.2134C347.241 35.3195 346.736 35.2664 346.312 35.0542C345.888 34.7889 345.516 34.444 345.198 34.0195C344.083 32.3747 345.357 30.1462 349.018 27.334C354.377 23.2484 359.842 21.2056 365.414 21.2056C371.462 21.2056 374.858 24.4688 375.601 30.9951C375.813 32.9583 375.919 35.0277 375.919 37.2031V80.5796C383.931 73.841 392.501 69.1452 401.627 66.4922C404.97 65.484 408.339 64.98 411.735 64.98C415.184 64.98 418.447 65.431 421.524 66.333C424.655 67.235 427.334 68.6942 429.563 70.7104C434.444 75.0614 436.885 81.6938 436.885 90.6079V144.013C436.885 148.417 438.371 151.123 441.342 152.131C442.191 152.449 443.199 152.715 444.367 152.927C445.534 153.139 446.569 153.404 447.471 153.723C448.426 153.988 449.169 154.306 449.699 154.678C450.601 155.368 451.052 156.482 451.052 158.021C451.052 159.931 450.654 161.39 449.858 162.398C448.744 162.133 447.046 162 444.765 162H419.375C414.282 162 411.019 161.098 409.586 159.294C409.002 158.604 408.71 157.808 408.71 156.906C408.71 154.625 409.108 152.98 409.904 151.972C411.231 152.396 412.663 152.608 414.202 152.608C415.741 152.608 416.908 152.051 417.704 150.937C418.553 149.823 419.031 147.78 419.137 144.809V96.2588C419.137 87.2386 416.457 82.1979 411.098 81.1367C409.453 80.8184 407.384 80.6592 404.89 80.6592C402.449 80.6592 399.743 81.0306 396.772 81.7734C393.854 82.5163 391.095 83.4714 388.495 84.6387C383.348 86.9733 379.156 89.759 375.919 92.9956V144.013C375.919 148.417 377.405 151.123 380.376 152.131C381.225 152.449 382.234 152.715 383.401 152.927C384.568 153.139 385.603 153.404 386.505 153.723C387.46 153.988 388.203 154.306 388.733 154.678C389.635 155.368 390.086 156.482 390.086 158.021C390.086 159.878 389.662 161.337 388.813 162.398ZM480.5 50.1763C478.696 50.1763 477.025 49.911 475.486 49.3804C474.001 48.7967 472.701 47.9743 471.586 46.9131C469.252 44.6846 468.084 41.6867 468.084 37.9194C468.084 34.3114 469.464 31.2604 472.223 28.7666C474.876 26.2728 478.06 25.0259 481.774 25.0259C485.488 25.0259 488.459 26.1401 490.688 28.3687C492.917 30.5972 494.031 33.6216 494.031 37.4419C494.031 41.05 492.704 44.1009 490.051 46.5947C487.451 48.9824 484.268 50.1763 480.5 50.1763ZM475.646 162C467.474 162 463.389 160.143 463.389 156.429C463.389 154.519 463.813 153.033 464.662 151.972C465.936 152.396 467.103 152.608 468.164 152.608C473.099 152.608 475.513 149.478 475.407 143.217V89.8916C475.407 86.1774 474.876 83.604 473.815 82.1714C472.807 80.6857 470.976 79.9429 468.323 79.9429C466.36 79.9429 464.583 80.1816 462.991 80.6592C462.036 80.7653 461.346 80.0225 460.921 78.4307C460.55 76.998 460.762 75.7511 461.558 74.6899C462.354 73.5757 463.574 72.4349 465.219 71.2676C466.917 70.0472 468.774 68.986 470.791 68.084C475.141 66.0146 478.776 64.98 481.694 64.98C484.613 64.98 486.762 65.4045 488.141 66.2534C489.574 67.1024 490.661 68.2432 491.404 69.6758C492.572 72.0104 493.155 75.7777 493.155 80.9775V144.57C493.314 148.762 494.827 151.308 497.692 152.21C498.488 152.476 499.469 152.715 500.637 152.927C501.804 153.139 502.839 153.404 503.741 153.723C504.696 153.988 505.439 154.306 505.969 154.678C506.871 155.368 507.322 156.482 507.322 158.021C507.322 159.931 506.924 161.39 506.128 162.398C505.014 162.133 503.316 162 501.035 162H475.646ZM560.17 162.398C559.109 162.133 557.411 162 555.076 162H531.199C526.105 162 522.842 161.098 521.41 159.294C520.826 158.604 520.534 157.808 520.534 156.906C520.534 154.678 520.959 153.033 521.808 151.972C523.081 152.396 524.54 152.608 526.185 152.608C527.83 152.608 529.05 151.945 529.846 150.619C530.642 149.292 531.014 146.825 530.96 143.217V44.605C530.96 40.9438 530.589 38.5827 529.846 37.5215C528.732 35.8236 526.769 34.9746 523.957 34.9746C523.108 34.9746 522.232 35.0807 521.33 35.293C520.481 35.4521 519.818 35.4256 519.34 35.2134C518.916 34.9481 518.571 34.6032 518.306 34.1787C517.616 33.1175 517.669 32.0563 518.465 30.9951C519.314 29.8809 520.508 28.7135 522.046 27.4932C523.585 26.2728 525.283 25.2116 527.14 24.3096C531.12 22.2402 534.542 21.2056 537.407 21.2056C540.326 21.2056 542.474 21.63 543.854 22.479C545.287 23.328 546.348 24.4688 547.038 25.9014C548.205 28.236 548.789 32.0033 548.789 37.2031V144.013C548.789 148.417 550.115 151.123 552.768 152.131C553.511 152.449 554.386 152.715 555.395 152.927C556.456 153.139 557.411 153.404 558.26 153.723C559.109 153.988 559.772 154.306 560.25 154.678C561.045 155.368 561.443 156.482 561.443 158.021C561.443 159.878 561.019 161.337 560.17 162.398ZM593.836 64.98C602.114 64.98 606.252 67.5269 606.252 72.6206C606.252 79.0409 599.806 87.9019 586.912 99.2036C581.924 103.608 576.91 107.375 571.87 110.505C575.265 113.636 578.741 117.695 582.296 122.683L590.653 134.462C597.657 144.49 602.936 149.504 606.491 149.504C609.41 149.504 611.32 149.213 612.222 148.629C613.177 148.045 613.867 147.727 614.291 147.674C614.715 147.621 615.273 147.806 615.962 148.231C616.652 148.655 616.997 149.372 616.997 150.38C616.997 151.388 616.573 152.661 615.724 154.2C614.928 155.686 613.787 157.118 612.301 158.498C608.693 161.841 604.793 163.512 600.602 163.512C596.41 163.512 592.881 162.531 590.016 160.567C587.151 158.551 584.471 155.978 581.978 152.847C579.484 149.664 577.123 146.135 574.894 142.262L568.288 130.96C562.929 121.728 558.339 115.732 554.519 112.973C552.291 111.434 551.548 110.452 552.291 110.028L554.599 108.754L567.413 99.6016C572.878 95.516 576.645 92.3058 578.714 89.9712C582.747 85.4611 584.763 81.6938 584.763 78.6694C584.763 76.547 582.641 75.3267 578.396 75.0083C577.865 74.1593 577.6 73.2573 577.6 72.3022C577.6 71.3472 578.104 70.4186 579.112 69.5166C580.174 68.5615 581.5 67.7656 583.092 67.1289C586.488 65.6963 590.069 64.98 593.836 64.98ZM715.052 68.5615C715.052 80.7122 708.366 90.6875 694.995 98.4873C704.281 103.581 710.197 107.64 712.744 110.665C715.291 113.689 717.015 116.66 717.917 119.579C718.872 122.497 719.35 125.919 719.35 129.846C719.35 133.719 718.501 137.646 716.803 141.625C715.158 145.551 712.558 149.16 709.003 152.449C701.044 159.825 689.875 163.512 675.496 163.512C663.027 163.512 652.706 160.78 644.535 155.314C635.303 149.213 630.687 140.511 630.687 129.209C630.687 120.03 635.621 111.434 645.49 103.422C648.196 101.193 650.955 99.2832 653.768 97.6914C642.147 90.3691 636.337 81.2428 636.337 70.3125C636.337 60.0719 640.609 52.1395 649.151 46.5151C656.527 41.6867 665.52 39.2725 676.132 39.2725C687.54 39.2725 696.905 42.0846 704.228 47.709C711.444 53.2272 715.052 60.1781 715.052 68.5615ZM697.622 70.9492C697.622 58.4801 690.114 52.2456 675.098 52.2456C664.38 52.2456 657.588 55.27 654.723 61.3188C653.874 63.1759 653.449 65.4575 653.449 68.1636C653.449 70.8696 654.404 73.4165 656.314 75.8042C658.225 78.1919 660.692 80.3939 663.716 82.4102C666.741 84.3734 670.11 86.2305 673.824 87.9814L684.967 93.2344C693.403 87.2917 697.622 79.8633 697.622 70.9492ZM648.913 128.572C648.913 132.18 649.788 135.603 651.539 138.839C653.343 142.023 655.625 144.517 658.384 146.321C663.159 149.451 669.447 151.017 677.247 151.017C684.993 151.017 691.069 149.292 695.473 145.843C699.611 142.66 701.681 138.494 701.681 133.348C701.681 128.838 699.399 124.752 694.836 121.091C692.501 119.181 689.477 117.191 685.763 115.122L672.471 107.879L663 103.024C653.608 109.975 648.913 118.491 648.913 128.572ZM785.966 162.398C784.905 162.133 783.207 162 780.873 162H755.483C750.39 162 747.126 161.098 745.694 159.294C745.11 158.604 744.818 157.808 744.818 156.906C744.818 154.678 745.243 153.033 746.092 151.972C747.365 152.396 748.824 152.608 750.469 152.608C752.114 152.608 753.334 151.945 754.13 150.619C754.926 149.292 755.298 146.825 755.245 143.217V44.605C755.245 40.9438 754.873 38.5827 754.13 37.5215C753.016 35.8236 751.053 34.9746 748.241 34.9746H746.649C746.171 34.9746 745.614 35.0542 744.978 35.2134C744.394 35.3195 743.89 35.2664 743.465 35.0542C743.041 34.7889 742.669 34.444 742.351 34.0195C741.237 32.3747 742.51 30.1462 746.171 27.334C751.53 23.2484 756.996 21.2056 762.567 21.2056C768.616 21.2056 772.012 24.4688 772.754 30.9951C772.967 32.9583 773.073 35.0277 773.073 37.2031V80.5796C781.085 73.841 789.654 69.1452 798.78 66.4922C802.123 65.484 805.492 64.98 808.888 64.98C812.337 64.98 815.6 65.431 818.678 66.333C821.808 67.235 824.488 68.6942 826.716 70.7104C831.598 75.0614 834.039 81.6938 834.039 90.6079V144.013C834.039 148.417 835.524 151.123 838.496 152.131C839.345 152.449 840.353 152.715 841.52 152.927C842.687 153.139 843.722 153.404 844.624 153.723C845.579 153.988 846.322 154.306 846.853 154.678C847.755 155.368 848.206 156.482 848.206 158.021C848.206 159.931 847.808 161.39 847.012 162.398C845.897 162.133 844.2 162 841.918 162H816.529C811.435 162 808.172 161.098 806.739 159.294C806.156 158.604 805.864 157.808 805.864 156.906C805.864 154.625 806.262 152.98 807.058 151.972C808.384 152.396 809.817 152.608 811.355 152.608C812.894 152.608 814.062 152.051 814.857 150.937C815.706 149.823 816.184 147.78 816.29 144.809V96.2588C816.29 87.2386 813.611 82.1979 808.251 81.1367C806.607 80.8184 804.537 80.6592 802.043 80.6592C799.603 80.6592 796.897 81.0306 793.925 81.7734C791.007 82.5163 788.248 83.4714 785.648 84.6387C780.501 86.9733 776.309 89.759 773.073 92.9956V144.013C773.073 148.417 774.558 151.123 777.53 152.131C778.379 152.449 779.387 152.715 780.554 152.927C781.722 153.139 782.756 153.404 783.658 153.723C784.613 153.988 785.356 154.306 785.887 154.678C786.789 155.368 787.24 156.482 787.24 158.021C787.24 159.878 786.815 161.337 785.966 162.398ZM877.654 50.1763C875.85 50.1763 874.178 49.911 872.64 49.3804C871.154 48.7967 869.854 47.9743 868.74 46.9131C866.405 44.6846 865.238 41.6867 865.238 37.9194C865.238 34.3114 866.617 31.2604 869.376 28.7666C872.029 26.2728 875.213 25.0259 878.927 25.0259C882.641 25.0259 885.613 26.1401 887.841 28.3687C890.07 30.5972 891.184 33.6216 891.184 37.4419C891.184 41.05 889.858 44.1009 887.205 46.5947C884.605 48.9824 881.421 50.1763 877.654 50.1763ZM872.799 162C864.628 162 860.542 160.143 860.542 156.429C860.542 154.519 860.966 153.033 861.815 151.972C863.089 152.396 864.256 152.608 865.317 152.608C870.252 152.608 872.666 149.478 872.56 143.217V89.8916C872.56 86.1774 872.029 83.604 870.968 82.1714C869.96 80.6857 868.13 79.9429 865.477 79.9429C863.513 79.9429 861.736 80.1816 860.144 80.6592C859.189 80.7653 858.499 80.0225 858.075 78.4307C857.703 76.998 857.916 75.7511 858.711 74.6899C859.507 73.5757 860.728 72.4349 862.373 71.2676C864.07 70.0472 865.928 68.986 867.944 68.084C872.295 66.0146 875.929 64.98 878.848 64.98C881.766 64.98 883.915 65.4045 885.294 66.2534C886.727 67.1024 887.815 68.2432 888.558 69.6758C889.725 72.0104 890.309 75.7777 890.309 80.9775V144.57C890.468 148.762 891.98 151.308 894.845 152.21C895.641 152.476 896.623 152.715 897.79 152.927C898.957 153.139 899.992 153.404 900.894 153.723C901.849 153.988 902.592 154.306 903.123 154.678C904.025 155.368 904.476 156.482 904.476 158.021C904.476 159.931 904.078 161.39 903.282 162.398C902.167 162.133 900.47 162 898.188 162H872.799ZM957.323 162.398C956.262 162.133 954.564 162 952.229 162H928.353C923.259 162 919.996 161.098 918.563 159.294C917.979 158.604 917.688 157.808 917.688 156.906C917.688 154.678 918.112 153.033 918.961 151.972C920.234 152.396 921.694 152.608 923.338 152.608C924.983 152.608 926.204 151.945 927 150.619C927.795 149.292 928.167 146.825 928.114 143.217V44.605C928.114 40.9438 927.742 38.5827 927 37.5215C925.885 35.8236 923.922 34.9746 921.11 34.9746C920.261 34.9746 919.385 35.0807 918.483 35.293C917.634 35.4521 916.971 35.4256 916.494 35.2134C916.069 34.9481 915.724 34.6032 915.459 34.1787C914.769 33.1175 914.822 32.0563 915.618 30.9951C916.467 29.8809 917.661 28.7135 919.2 27.4932C920.738 26.2728 922.436 25.2116 924.293 24.3096C928.273 22.2402 931.695 21.2056 934.561 21.2056C937.479 21.2056 939.628 21.63 941.007 22.479C942.44 23.328 943.501 24.4688 944.191 25.9014C945.358 28.236 945.942 32.0033 945.942 37.2031V144.013C945.942 148.417 947.268 151.123 949.921 152.131C950.664 152.449 951.54 152.715 952.548 152.927C953.609 153.139 954.564 153.404 955.413 153.723C956.262 153.988 956.925 154.306 957.403 154.678C958.199 155.368 958.597 156.482 958.597 158.021C958.597 159.878 958.172 161.337 957.323 162.398ZM990.99 64.98C999.267 64.98 1003.41 67.5269 1003.41 72.6206C1003.41 79.0409 996.959 87.9019 984.065 99.2036C979.078 103.608 974.064 107.375 969.023 110.505C972.419 113.636 975.894 117.695 979.449 122.683L987.806 134.462C994.81 144.49 1000.09 149.504 1003.64 149.504C1006.56 149.504 1008.47 149.213 1009.38 148.629C1010.33 148.045 1011.02 147.727 1011.44 147.674C1011.87 147.621 1012.43 147.806 1013.12 148.231C1013.81 148.655 1014.15 149.372 1014.15 150.38C1014.15 151.388 1013.73 152.661 1012.88 154.2C1012.08 155.686 1010.94 157.118 1009.45 158.498C1005.85 161.841 1001.95 163.512 997.755 163.512C993.563 163.512 990.035 162.531 987.169 160.567C984.304 158.551 981.625 155.978 979.131 152.847C976.637 149.664 974.276 146.135 972.047 142.262L965.441 130.96C960.082 121.728 955.493 115.732 951.672 112.973C949.444 111.434 948.701 110.452 949.444 110.028L951.752 108.754L964.566 99.6016C970.031 95.516 973.798 92.3058 975.868 89.9712C979.9 85.4611 981.917 81.6938 981.917 78.6694C981.917 76.547 979.794 75.3267 975.549 75.0083C975.019 74.1593 974.753 73.2573 974.753 72.3022C974.753 71.3472 975.257 70.4186 976.266 69.5166C977.327 68.5615 978.653 67.7656 980.245 67.1289C983.641 65.6963 987.222 64.98 990.99 64.98Z" fill="#A5A6F6"/>
</g>
<defs>
<clipPath id="clip0_102_2">
<rect width="1304" height="200" fill="white"/>
</clipPath>
</defs>
</svg>
