<svg width="1009" height="80" viewBox="0 0 1009 80" fill="none" xmlns="http://www.w3.org/2000/svg">
<path d="M357.344 63.1562C356.927 63.0521 356.26 63 355.344 63H345.375C343.375 63 342.094 62.6458 341.531 61.9375C341.302 61.6667 341.188 61.3542 341.188 61C341.188 60.125 341.354 59.4792 341.688 59.0625C342.188 59.2292 342.76 59.3125 343.406 59.3125C344.052 59.3125 344.531 59.0521 344.844 58.5312C345.156 58.0104 345.302 57.0417 345.281 55.625V16.9062C345.281 15.4688 345.135 14.5417 344.844 14.125C344.406 13.4583 343.635 13.125 342.531 13.125H341.906C341.719 13.125 341.5 13.1562 341.25 13.2188C341.021 13.2604 340.823 13.2396 340.656 13.1562C340.49 13.0521 340.344 12.9167 340.219 12.75C339.781 12.1042 340.281 11.2292 341.719 10.125C343.823 8.52083 345.969 7.71875 348.156 7.71875C350.531 7.71875 351.865 9 352.156 11.5625C352.24 12.3333 352.281 13.1458 352.281 14V31.0312C355.427 28.3854 358.792 26.5417 362.375 25.5C363.688 25.1042 365.01 24.9062 366.344 24.9062C367.698 24.9062 368.979 25.0833 370.188 25.4375C371.417 25.7917 372.469 26.3646 373.344 27.1562C375.26 28.8646 376.219 31.4688 376.219 34.9688V55.9375C376.219 57.6667 376.802 58.7292 377.969 59.125C378.302 59.25 378.698 59.3542 379.156 59.4375C379.615 59.5208 380.021 59.625 380.375 59.75C380.75 59.8542 381.042 59.9792 381.25 60.125C381.604 60.3958 381.781 60.8333 381.781 61.4375C381.781 62.1875 381.625 62.7604 381.312 63.1562C380.875 63.0521 380.208 63 379.312 63H369.344C367.344 63 366.062 62.6458 365.5 61.9375C365.271 61.6667 365.156 61.3542 365.156 61C365.156 60.1042 365.312 59.4583 365.625 59.0625C366.146 59.2292 366.708 59.3125 367.312 59.3125C367.917 59.3125 368.375 59.0938 368.688 58.6562C369.021 58.2188 369.208 57.4167 369.25 56.25V37.1875C369.25 33.6458 368.198 31.6667 366.094 31.25C365.448 31.125 364.635 31.0625 363.656 31.0625C362.698 31.0625 361.635 31.2083 360.469 31.5C359.323 31.7917 358.24 32.1667 357.219 32.625C355.198 33.5417 353.552 34.6354 352.281 35.9062V55.9375C352.281 57.6667 352.865 58.7292 354.031 59.125C354.365 59.25 354.76 59.3542 355.219 59.4375C355.677 59.5208 356.083 59.625 356.438 59.75C356.812 59.8542 357.104 59.9792 357.312 60.125C357.667 60.3958 357.844 60.8333 357.844 61.4375C357.844 62.1667 357.677 62.7396 357.344 63.1562ZM393.344 19.0938C392.635 19.0938 391.979 18.9896 391.375 18.7812C390.792 18.5521 390.281 18.2292 389.844 17.8125C388.927 16.9375 388.469 15.7604 388.469 14.2812C388.469 12.8646 389.01 11.6667 390.094 10.6875C391.135 9.70833 392.385 9.21875 393.844 9.21875C395.302 9.21875 396.469 9.65625 397.344 10.5312C398.219 11.4062 398.656 12.5938 398.656 14.0938C398.656 15.5104 398.135 16.7083 397.094 17.6875C396.073 18.625 394.823 19.0938 393.344 19.0938ZM391.438 63C388.229 63 386.625 62.2708 386.625 60.8125C386.625 60.0625 386.792 59.4792 387.125 59.0625C387.625 59.2292 388.083 59.3125 388.5 59.3125C390.438 59.3125 391.385 58.0833 391.344 55.625V34.6875C391.344 33.2292 391.135 32.2188 390.719 31.6562C390.323 31.0729 389.604 30.7812 388.562 30.7812C387.792 30.7812 387.094 30.875 386.469 31.0625C386.094 31.1042 385.823 30.8125 385.656 30.1875C385.51 29.625 385.594 29.1354 385.906 28.7188C386.219 28.2812 386.698 27.8333 387.344 27.375C388.01 26.8958 388.74 26.4792 389.531 26.125C391.24 25.3125 392.667 24.9062 393.812 24.9062C394.958 24.9062 395.802 25.0729 396.344 25.4062C396.906 25.7396 397.333 26.1875 397.625 26.75C398.083 27.6667 398.312 29.1458 398.312 31.1875V56.1562C398.375 57.8021 398.969 58.8021 400.094 59.1562C400.406 59.2604 400.792 59.3542 401.25 59.4375C401.708 59.5208 402.115 59.625 402.469 59.75C402.844 59.8542 403.135 59.9792 403.344 60.125C403.698 60.3958 403.875 60.8333 403.875 61.4375C403.875 62.1875 403.719 62.7604 403.406 63.1562C402.969 63.0521 402.302 63 401.406 63H391.438ZM424.625 63.1562C424.208 63.0521 423.542 63 422.625 63H413.25C411.25 63 409.969 62.6458 409.406 61.9375C409.177 61.6667 409.062 61.3542 409.062 61C409.062 60.125 409.229 59.4792 409.562 59.0625C410.062 59.2292 410.635 59.3125 411.281 59.3125C411.927 59.3125 412.406 59.0521 412.719 58.5312C413.031 58.0104 413.177 57.0417 413.156 55.625V16.9062C413.156 15.4688 413.01 14.5417 412.719 14.125C412.281 13.4583 411.51 13.125 410.406 13.125C410.073 13.125 409.729 13.1667 409.375 13.25C409.042 13.3125 408.781 13.3021 408.594 13.2188C408.427 13.1146 408.292 12.9792 408.188 12.8125C407.917 12.3958 407.938 11.9792 408.25 11.5625C408.583 11.125 409.052 10.6667 409.656 10.1875C410.26 9.70833 410.927 9.29167 411.656 8.9375C413.219 8.125 414.562 7.71875 415.688 7.71875C416.833 7.71875 417.677 7.88542 418.219 8.21875C418.781 8.55208 419.198 9 419.469 9.5625C419.927 10.4792 420.156 11.9583 420.156 14V55.9375C420.156 57.6667 420.677 58.7292 421.719 59.125C422.01 59.25 422.354 59.3542 422.75 59.4375C423.167 59.5208 423.542 59.625 423.875 59.75C424.208 59.8542 424.469 59.9792 424.656 60.125C424.969 60.3958 425.125 60.8333 425.125 61.4375C425.125 62.1667 424.958 62.7396 424.625 63.1562ZM437.844 24.9062C441.094 24.9062 442.719 25.9062 442.719 27.9062C442.719 30.4271 440.188 33.9062 435.125 38.3438C433.167 40.0729 431.198 41.5521 429.219 42.7812C430.552 44.0104 431.917 45.6042 433.312 47.5625L436.594 52.1875C439.344 56.125 441.417 58.0938 442.812 58.0938C443.958 58.0938 444.708 57.9792 445.062 57.75C445.438 57.5208 445.708 57.3958 445.875 57.375C446.042 57.3542 446.26 57.4271 446.531 57.5938C446.802 57.7604 446.938 58.0417 446.938 58.4375C446.938 58.8333 446.771 59.3333 446.438 59.9375C446.125 60.5208 445.677 61.0833 445.094 61.625C443.677 62.9375 442.146 63.5938 440.5 63.5938C438.854 63.5938 437.469 63.2083 436.344 62.4375C435.219 61.6458 434.167 60.6354 433.188 59.4062C432.208 58.1562 431.281 56.7708 430.406 55.25L427.812 50.8125C425.708 47.1875 423.906 44.8333 422.406 43.75C421.531 43.1458 421.24 42.7604 421.531 42.5938L422.438 42.0938L427.469 38.5C429.615 36.8958 431.094 35.6354 431.906 34.7188C433.49 32.9479 434.281 31.4688 434.281 30.2812C434.281 29.4479 433.448 28.9688 431.781 28.8438C431.573 28.5104 431.469 28.1562 431.469 27.7812C431.469 27.4062 431.667 27.0417 432.062 26.6875C432.479 26.3125 433 26 433.625 25.75C434.958 25.1875 436.365 24.9062 437.844 24.9062ZM485.438 26.3125C485.438 31.0833 482.812 35 477.562 38.0625C481.208 40.0625 483.531 41.6562 484.531 42.8438C485.531 44.0312 486.208 45.1979 486.562 46.3438C486.938 47.4896 487.125 48.8333 487.125 50.375C487.125 51.8958 486.792 53.4375 486.125 55C485.479 56.5417 484.458 57.9583 483.062 59.25C479.938 62.1458 475.552 63.5938 469.906 63.5938C465.01 63.5938 460.958 62.5208 457.75 60.375C454.125 57.9792 452.312 54.5625 452.312 50.125C452.312 46.5208 454.25 43.1458 458.125 40C459.188 39.125 460.271 38.375 461.375 37.75C456.812 34.875 454.531 31.2917 454.531 27C454.531 22.9792 456.208 19.8646 459.562 17.6562C462.458 15.7604 465.99 14.8125 470.156 14.8125C474.635 14.8125 478.312 15.9167 481.188 18.125C484.021 20.2917 485.438 23.0208 485.438 26.3125ZM478.594 27.25C478.594 22.3542 475.646 19.9062 469.75 19.9062C465.542 19.9062 462.875 21.0938 461.75 23.4688C461.417 24.1979 461.25 25.0938 461.25 26.1562C461.25 27.2188 461.625 28.2188 462.375 29.1562C463.125 30.0938 464.094 30.9583 465.281 31.75C466.469 32.5208 467.792 33.25 469.25 33.9375L473.625 36C476.938 33.6667 478.594 30.75 478.594 27.25ZM459.469 49.875C459.469 51.2917 459.812 52.6354 460.5 53.9062C461.208 55.1562 462.104 56.1354 463.188 56.8438C465.062 58.0729 467.531 58.6875 470.594 58.6875C473.635 58.6875 476.021 58.0104 477.75 56.6562C479.375 55.4062 480.188 53.7708 480.188 51.75C480.188 49.9792 479.292 48.375 477.5 46.9375C476.583 46.1875 475.396 45.4062 473.938 44.5938L468.719 41.75L465 39.8438C461.312 42.5729 459.469 45.9167 459.469 49.875ZM513.281 63.1562C512.865 63.0521 512.198 63 511.281 63H501.312C499.312 63 498.031 62.6458 497.469 61.9375C497.24 61.6667 497.125 61.3542 497.125 61C497.125 60.125 497.292 59.4792 497.625 59.0625C498.125 59.2292 498.698 59.3125 499.344 59.3125C499.99 59.3125 500.469 59.0521 500.781 58.5312C501.094 58.0104 501.24 57.0417 501.219 55.625V16.9062C501.219 15.4688 501.073 14.5417 500.781 14.125C500.344 13.4583 499.573 13.125 498.469 13.125H497.844C497.656 13.125 497.438 13.1562 497.188 13.2188C496.958 13.2604 496.76 13.2396 496.594 13.1562C496.427 13.0521 496.281 12.9167 496.156 12.75C495.719 12.1042 496.219 11.2292 497.656 10.125C499.76 8.52083 501.906 7.71875 504.094 7.71875C506.469 7.71875 507.802 9 508.094 11.5625C508.177 12.3333 508.219 13.1458 508.219 14V31.0312C511.365 28.3854 514.729 26.5417 518.312 25.5C519.625 25.1042 520.948 24.9062 522.281 24.9062C523.635 24.9062 524.917 25.0833 526.125 25.4375C527.354 25.7917 528.406 26.3646 529.281 27.1562C531.198 28.8646 532.156 31.4688 532.156 34.9688V55.9375C532.156 57.6667 532.74 58.7292 533.906 59.125C534.24 59.25 534.635 59.3542 535.094 59.4375C535.552 59.5208 535.958 59.625 536.312 59.75C536.688 59.8542 536.979 59.9792 537.188 60.125C537.542 60.3958 537.719 60.8333 537.719 61.4375C537.719 62.1875 537.562 62.7604 537.25 63.1562C536.812 63.0521 536.146 63 535.25 63H525.281C523.281 63 522 62.6458 521.438 61.9375C521.208 61.6667 521.094 61.3542 521.094 61C521.094 60.1042 521.25 59.4583 521.562 59.0625C522.083 59.2292 522.646 59.3125 523.25 59.3125C523.854 59.3125 524.312 59.0938 524.625 58.6562C524.958 58.2188 525.146 57.4167 525.188 56.25V37.1875C525.188 33.6458 524.135 31.6667 522.031 31.25C521.385 31.125 520.573 31.0625 519.594 31.0625C518.635 31.0625 517.573 31.2083 516.406 31.5C515.26 31.7917 514.177 32.1667 513.156 32.625C511.135 33.5417 509.49 34.6354 508.219 35.9062V55.9375C508.219 57.6667 508.802 58.7292 509.969 59.125C510.302 59.25 510.698 59.3542 511.156 59.4375C511.615 59.5208 512.021 59.625 512.375 59.75C512.75 59.8542 513.042 59.9792 513.25 60.125C513.604 60.3958 513.781 60.8333 513.781 61.4375C513.781 62.1667 513.615 62.7396 513.281 63.1562ZM549.281 19.0938C548.573 19.0938 547.917 18.9896 547.312 18.7812C546.729 18.5521 546.219 18.2292 545.781 17.8125C544.865 16.9375 544.406 15.7604 544.406 14.2812C544.406 12.8646 544.948 11.6667 546.031 10.6875C547.073 9.70833 548.323 9.21875 549.781 9.21875C551.24 9.21875 552.406 9.65625 553.281 10.5312C554.156 11.4062 554.594 12.5938 554.594 14.0938C554.594 15.5104 554.073 16.7083 553.031 17.6875C552.01 18.625 550.76 19.0938 549.281 19.0938ZM547.375 63C544.167 63 542.562 62.2708 542.562 60.8125C542.562 60.0625 542.729 59.4792 543.062 59.0625C543.562 59.2292 544.021 59.3125 544.438 59.3125C546.375 59.3125 547.323 58.0833 547.281 55.625V34.6875C547.281 33.2292 547.073 32.2188 546.656 31.6562C546.26 31.0729 545.542 30.7812 544.5 30.7812C543.729 30.7812 543.031 30.875 542.406 31.0625C542.031 31.1042 541.76 30.8125 541.594 30.1875C541.448 29.625 541.531 29.1354 541.844 28.7188C542.156 28.2812 542.635 27.8333 543.281 27.375C543.948 26.8958 544.677 26.4792 545.469 26.125C547.177 25.3125 548.604 24.9062 549.75 24.9062C550.896 24.9062 551.74 25.0729 552.281 25.4062C552.844 25.7396 553.271 26.1875 553.562 26.75C554.021 27.6667 554.25 29.1458 554.25 31.1875V56.1562C554.312 57.8021 554.906 58.8021 556.031 59.1562C556.344 59.2604 556.729 59.3542 557.188 59.4375C557.646 59.5208 558.052 59.625 558.406 59.75C558.781 59.8542 559.073 59.9792 559.281 60.125C559.635 60.3958 559.812 60.8333 559.812 61.4375C559.812 62.1875 559.656 62.7604 559.344 63.1562C558.906 63.0521 558.24 63 557.344 63H547.375ZM580.562 63.1562C580.146 63.0521 579.479 63 578.562 63H569.188C567.188 63 565.906 62.6458 565.344 61.9375C565.115 61.6667 565 61.3542 565 61C565 60.125 565.167 59.4792 565.5 59.0625C566 59.2292 566.573 59.3125 567.219 59.3125C567.865 59.3125 568.344 59.0521 568.656 58.5312C568.969 58.0104 569.115 57.0417 569.094 55.625V16.9062C569.094 15.4688 568.948 14.5417 568.656 14.125C568.219 13.4583 567.448 13.125 566.344 13.125C566.01 13.125 565.667 13.1667 565.312 13.25C564.979 13.3125 564.719 13.3021 564.531 13.2188C564.365 13.1146 564.229 12.9792 564.125 12.8125C563.854 12.3958 563.875 11.9792 564.188 11.5625C564.521 11.125 564.99 10.6667 565.594 10.1875C566.198 9.70833 566.865 9.29167 567.594 8.9375C569.156 8.125 570.5 7.71875 571.625 7.71875C572.771 7.71875 573.615 7.88542 574.156 8.21875C574.719 8.55208 575.135 9 575.406 9.5625C575.865 10.4792 576.094 11.9583 576.094 14V55.9375C576.094 57.6667 576.615 58.7292 577.656 59.125C577.948 59.25 578.292 59.3542 578.688 59.4375C579.104 59.5208 579.479 59.625 579.812 59.75C580.146 59.8542 580.406 59.9792 580.594 60.125C580.906 60.3958 581.062 60.8333 581.062 61.4375C581.062 62.1667 580.896 62.7396 580.562 63.1562ZM593.781 24.9062C597.031 24.9062 598.656 25.9062 598.656 27.9062C598.656 30.4271 596.125 33.9062 591.062 38.3438C589.104 40.0729 587.135 41.5521 585.156 42.7812C586.49 44.0104 587.854 45.6042 589.25 47.5625L592.531 52.1875C595.281 56.125 597.354 58.0938 598.75 58.0938C599.896 58.0938 600.646 57.9792 601 57.75C601.375 57.5208 601.646 57.3958 601.812 57.375C601.979 57.3542 602.198 57.4271 602.469 57.5938C602.74 57.7604 602.875 58.0417 602.875 58.4375C602.875 58.8333 602.708 59.3333 602.375 59.9375C602.062 60.5208 601.615 61.0833 601.031 61.625C599.615 62.9375 598.083 63.5938 596.438 63.5938C594.792 63.5938 593.406 63.2083 592.281 62.4375C591.156 61.6458 590.104 60.6354 589.125 59.4062C588.146 58.1562 587.219 56.7708 586.344 55.25L583.75 50.8125C581.646 47.1875 579.844 44.8333 578.344 43.75C577.469 43.1458 577.177 42.7604 577.469 42.5938L578.375 42.0938L583.406 38.5C585.552 36.8958 587.031 35.6354 587.844 34.7188C589.427 32.9479 590.219 31.4688 590.219 30.2812C590.219 29.4479 589.385 28.9688 587.719 28.8438C587.51 28.5104 587.406 28.1562 587.406 27.7812C587.406 27.4062 587.604 27.0417 588 26.6875C588.417 26.3125 588.938 26 589.562 25.75C590.896 25.1875 592.302 24.9062 593.781 24.9062Z" fill="#A5A6F6"/>
</svg>
