<svg width="1512" height="225" viewBox="0 0 1512 225" fill="none" xmlns="http://www.w3.org/2000/svg">
<g clip-path="url(#clip0_105_407)">
<rect width="1512" height="225" fill="url(#paint0_radial_105_407)"/>
<g filter="url(#filter0_f_105_407)">
<g filter="url(#filter1_f_105_407)">
<circle cx="1647.46" cy="681.879" r="216.183" fill="#861F2A"/>
</g>
<circle cx="1709.97" cy="465.696" r="319.083" fill="url(#paint1_radial_105_407)"/>
<circle cx="1709.97" cy="465.696" r="319.083" fill="url(#paint2_radial_105_407)" style="mix-blend-mode:overlay"/>
<circle cx="1709.97" cy="465.696" r="319.083" fill="url(#paint3_radial_105_407)" style="mix-blend-mode:soft-light"/>
<g filter="url(#filter2_f_105_407)">
<ellipse cx="1734.05" cy="320.234" rx="69.6156" ry="138.127" transform="rotate(-76.4765 1734.05 320.234)" fill="#FF6A82"/>
</g>
</g>
<g filter="url(#filter3_f_105_407)">
<circle cx="59.8323" cy="361.115" r="173.526" fill="#861F2A"/>
</g>
<circle cx="110.008" cy="187.589" r="256.122" fill="url(#paint4_radial_105_407)"/>
<circle cx="110.008" cy="187.589" r="256.122" fill="url(#paint5_radial_105_407)" style="mix-blend-mode:overlay"/>
<circle cx="110.008" cy="187.589" r="256.122" fill="url(#paint6_radial_105_407)" style="mix-blend-mode:soft-light"/>
<g filter="url(#filter4_f_105_407)">
<ellipse cx="129.333" cy="70.8291" rx="55.8792" ry="110.872" transform="rotate(-76.4765 129.333 70.8291)" fill="#FF6A82"/>
</g>
<g filter="url(#filter5_f_105_407)">
<circle cx="-7.44496" cy="132.273" r="8.33532" fill="white"/>
</g>
<g filter="url(#filter6_f_105_407)">
<ellipse cx="59.8324" cy="18.3873" rx="6.72101" ry="4.6207" transform="rotate(-9.88469 59.8324 18.3873)" fill="white"/>
</g>
<g filter="url(#filter7_f_105_407)">
<ellipse cx="81.3516" cy="14.6376" rx="10.9216" ry="7.14107" transform="rotate(-9.88469 81.3516 14.6376)" fill="white"/>
</g>
<g filter="url(#filter8_f_105_407)">
<path fill-rule="evenodd" clip-rule="evenodd" d="M35.1349 84.8167C37.3151 84.0563 39.1667 82.7778 40.5998 81.1672C41.661 79.9747 43.8417 79.8547 45.1124 80.8208C47.7117 82.7971 51.221 83.4742 54.5351 82.3184C59.7886 80.4862 62.5622 74.7421 60.73 69.4886C58.8978 64.2351 53.1537 61.4616 47.9002 63.2937C46.9875 63.6121 46.1495 64.0485 45.3977 64.5799C44.0934 65.5018 41.9177 65.3052 40.8966 64.077C37.5044 59.997 31.8146 58.2345 26.5096 60.0846C19.68 62.4665 16.0744 69.9338 18.4562 76.7633C20.8381 83.5929 28.3054 87.1985 35.1349 84.8167ZM86.2727 76.5943C85.7534 77.1182 84.6417 76.8675 84.3987 76.171V76.171C82.5666 70.9175 76.8225 68.1439 71.569 69.9761C66.3155 71.8083 63.5419 77.5524 65.3741 82.8059C67.2063 88.0594 72.9504 90.8329 78.2039 89.0007C79.6992 88.4792 80.9935 87.6409 82.038 86.5871C82.5573 86.0631 83.669 86.3138 83.9119 87.0104V87.0104C85.7441 92.2639 91.4882 95.0374 96.7417 93.2052V93.2052C97.8008 92.8358 99.0426 93.2113 99.8405 93.9997C101.832 95.9671 105.106 96.6897 108.245 95.5951C108.675 95.445 109.086 95.2666 109.476 95.0632C110.623 94.4649 112.239 94.6291 113.32 95.3409C114.621 96.1982 116.409 96.884 118.437 97.2194C122.829 97.9457 126.683 96.7545 127.046 94.5588C127.409 92.3631 124.144 89.9943 119.752 89.2681C118.813 89.1127 117.898 89.0451 117.036 89.0563C115.548 89.0757 114.022 87.6875 113.532 86.2826V86.2826C112.25 82.6051 107.803 80.8122 103.6 82.2779V82.2779C103.502 82.312 103.397 82.2489 103.381 82.1465C103.288 81.5541 103.141 80.9617 102.937 80.3755C101.104 75.122 95.3603 72.3484 90.1068 74.1806C88.6115 74.7021 87.3171 75.5405 86.2727 76.5943ZM184.969 123.542C186.801 128.795 184.028 134.539 178.774 136.371C173.521 138.204 167.777 135.43 165.944 130.177C165.716 129.521 165.559 128.858 165.47 128.195C165.272 126.728 163.862 125.429 162.389 125.281C159.595 125 157.186 123.357 156.297 120.808C156.11 120.271 156 119.723 155.963 119.174C155.857 117.603 154.656 115.794 153.1 115.549C153.057 115.543 153.015 115.536 152.972 115.529C148.581 114.802 145.315 112.434 145.678 110.238C146.041 108.042 149.896 106.851 154.287 107.577C157.691 108.14 160.418 109.69 161.304 111.381C161.357 111.483 161.477 111.534 161.585 111.496V111.496C165.788 110.03 170.235 111.823 171.517 115.5C171.707 116.045 171.817 116.6 171.853 117.155C171.862 117.297 172.005 117.394 172.139 117.347V117.347C177.393 115.515 183.137 118.288 184.969 123.542Z" fill="white" fill-opacity="0.5"/>
</g>
<mask id="mask0_105_407" style="mask-type:alpha" maskUnits="userSpaceOnUse" x="-147" y="-69" width="514" height="513">
<circle cx="110.008" cy="187.589" r="256.122" fill="url(#paint7_radial_105_407)"/>
<circle cx="110.008" cy="187.589" r="256.122" fill="url(#paint8_radial_105_407)"/>
<circle cx="110.008" cy="187.589" r="256.122" fill="url(#paint9_radial_105_407)"/>
</mask>
<g mask="url(#mask0_105_407)">
<g filter="url(#filter9_f_105_407)">
<path d="M310.301 123.938C310.301 123.938 363.267 202.671 366.13 237.743C301.712 596.338 -30.2213 571.238 74.1001 471.796C203.739 348.221 310.301 343.66 310.301 123.938Z" fill="white" fill-opacity="0.08"/>
</g>
</g>
<g filter="url(#filter10_f_105_407)">
<circle cx="1668.81" cy="384.003" r="189.818" fill="#A52E3A"/>
</g>
<circle cx="1723.7" cy="194.186" r="280.168" fill="url(#paint10_radial_105_407)"/>
<circle cx="1723.7" cy="194.186" r="280.168" fill="url(#paint11_radial_105_407)" style="mix-blend-mode:overlay"/>
<circle cx="1723.7" cy="194.186" r="280.168" fill="url(#paint12_radial_105_407)" style="mix-blend-mode:soft-light"/>
<g filter="url(#filter11_f_105_407)">
<ellipse cx="1744.84" cy="66.4639" rx="61.1254" ry="121.282" transform="rotate(-76.4765 1744.84 66.4639)" fill="#FFB0BD"/>
</g>
<g filter="url(#filter12_f_105_407)">
<circle cx="1030.53" cy="550.855" r="223.001" fill="#A52E3A"/>
</g>
<circle cx="850.371" cy="415.925" r="329.145" fill="url(#paint13_radial_105_407)"/>
<circle cx="850.371" cy="415.925" r="329.145" fill="url(#paint14_radial_105_407)" style="mix-blend-mode:overlay"/>
<circle cx="850.371" cy="415.925" r="329.145" fill="url(#paint15_radial_105_407)" style="mix-blend-mode:soft-light"/>
<g filter="url(#filter13_f_105_407)">
<ellipse cx="875.207" cy="265.876" rx="71.811" ry="142.483" transform="rotate(-76.4765 875.207 265.876)" fill="#FFB0BD"/>
</g>
<g filter="url(#filter14_f_105_407)">
<ellipse cx="785.89" cy="198.482" rx="8.63726" ry="5.93812" transform="rotate(-9.88469 785.89 198.482)" fill="white"/>
</g>
<g filter="url(#filter15_f_105_407)">
<ellipse cx="813.544" cy="193.663" rx="14.0355" ry="9.17709" transform="rotate(-9.88469 813.544 193.663)" fill="white"/>
</g>
<path fill-rule="evenodd" clip-rule="evenodd" d="M754.151 283.851C756.953 282.874 759.332 281.231 761.174 279.161C762.538 277.629 765.34 277.475 766.973 278.716C770.314 281.256 774.824 282.126 779.083 280.641C785.834 278.286 789.398 270.904 787.044 264.153C784.689 257.402 777.307 253.837 770.556 256.192C769.383 256.601 768.306 257.162 767.34 257.845C765.664 259.03 762.868 258.777 761.556 257.199C757.196 251.955 749.884 249.69 743.067 252.068C734.29 255.129 729.656 264.725 732.717 273.502C735.778 282.279 745.374 286.912 754.151 283.851ZM819.869 273.285C819.202 273.958 817.773 273.636 817.461 272.741V272.741C815.106 265.989 807.724 262.425 800.973 264.78C794.222 267.134 790.657 274.516 793.012 281.267C795.367 288.019 802.748 291.583 809.5 289.228C811.421 288.558 813.085 287.481 814.427 286.127C815.094 285.453 816.523 285.775 816.835 286.67V286.67C819.19 293.422 826.571 296.986 833.323 294.632V294.632C834.684 294.157 836.279 294.639 837.304 295.652C839.863 298.181 844.071 299.11 848.105 297.703C848.658 297.51 849.186 297.281 849.687 297.019C851.162 296.25 853.239 296.461 854.628 297.376C856.3 298.478 858.598 299.359 861.204 299.79C866.848 300.724 871.801 299.193 872.268 296.371C872.734 293.549 868.538 290.505 862.894 289.572C861.687 289.372 860.51 289.285 859.403 289.3C857.491 289.325 855.53 287.541 854.9 285.735V285.735C853.252 281.009 847.537 278.705 842.136 280.589V280.589C842.011 280.633 841.875 280.552 841.855 280.42C841.736 279.659 841.547 278.897 841.284 278.144C838.929 271.393 831.547 267.828 824.796 270.183C822.875 270.853 821.211 271.93 819.869 273.285ZM946.705 333.617C949.059 340.369 945.495 347.75 938.743 350.105C931.992 352.46 924.61 348.895 922.256 342.144C921.962 341.301 921.76 340.449 921.645 339.598C921.391 337.712 919.579 336.043 917.686 335.853C914.096 335.492 911.001 333.38 909.858 330.105C909.618 329.414 909.477 328.71 909.429 328.005C909.292 325.985 907.749 323.661 905.749 323.346C905.694 323.338 905.64 323.329 905.585 323.32C899.941 322.386 895.745 319.342 896.211 316.521C896.678 313.699 901.631 312.168 907.275 313.101C911.649 313.825 915.154 315.816 916.292 317.99C916.361 318.12 916.514 318.186 916.654 318.137V318.137C922.055 316.253 927.769 318.557 929.417 323.283C929.661 323.983 929.803 324.696 929.849 325.41C929.86 325.592 930.044 325.716 930.217 325.656V325.656C936.968 323.302 944.35 326.866 946.705 333.617Z" fill="white" fill-opacity="0.5"/>
<g filter="url(#filter17_f_105_407)">
<circle cx="1499.09" cy="287.507" r="66.4303" fill="#9D343F"/>
</g>
<circle cx="1432.66" cy="283.667" r="98.05" fill="url(#paint16_radial_105_407)"/>
<circle cx="1432.66" cy="283.667" r="98.05" fill="url(#paint17_radial_105_407)" style="mix-blend-mode:overlay"/>
<circle cx="1432.66" cy="283.667" r="98.05" fill="url(#paint18_radial_105_407)" style="mix-blend-mode:soft-light"/>
<g filter="url(#filter18_f_105_407)">
<ellipse cx="1440.06" cy="238.969" rx="21.392" ry="42.4448" transform="rotate(-76.4765 1440.06 238.969)" fill="#FFB0BD"/>
</g>
<g filter="url(#filter19_f_105_407)">
<ellipse cx="1413.45" cy="218.893" rx="2.57298" ry="1.76892" transform="rotate(-9.88469 1413.45 218.893)" fill="white"/>
</g>
<g filter="url(#filter20_f_105_407)">
<ellipse cx="1421.69" cy="217.457" rx="4.18109" ry="2.73379" transform="rotate(-9.88469 1421.69 217.457)" fill="white"/>
</g>
<path fill-rule="evenodd" clip-rule="evenodd" d="M1404 244.324C1404.83 244.033 1405.54 243.543 1406.09 242.927C1406.5 242.47 1407.33 242.424 1407.82 242.794C1408.81 243.551 1410.16 243.81 1411.43 243.367C1413.44 242.666 1414.5 240.467 1413.8 238.456C1413.1 236.444 1410.9 235.383 1408.89 236.084C1408.54 236.206 1408.22 236.373 1407.93 236.577C1407.43 236.929 1406.6 236.854 1406.2 236.384C1404.91 234.822 1402.73 234.147 1400.7 234.856C1398.08 235.767 1396.7 238.626 1397.61 241.241C1398.53 243.855 1401.38 245.235 1404 244.324ZM1423.58 241.176C1423.38 241.376 1422.95 241.28 1422.86 241.014V241.014C1422.16 239.003 1419.96 237.941 1417.95 238.642C1415.94 239.344 1414.87 241.543 1415.57 243.554C1416.28 245.565 1418.48 246.627 1420.49 245.925C1421.06 245.726 1421.55 245.405 1421.95 245.001C1422.15 244.801 1422.58 244.897 1422.67 245.163V245.163C1423.37 247.175 1425.57 248.236 1427.58 247.535V247.535C1427.99 247.394 1428.46 247.537 1428.77 247.839C1429.53 248.592 1430.79 248.869 1431.99 248.45C1432.15 248.392 1432.31 248.324 1432.46 248.246C1432.9 248.017 1433.52 248.08 1433.93 248.353C1434.43 248.681 1435.11 248.943 1435.89 249.072C1437.57 249.35 1439.05 248.894 1439.18 248.053C1439.32 247.213 1438.07 246.306 1436.39 246.028C1436.03 245.968 1435.68 245.942 1435.35 245.947C1434.78 245.954 1434.2 245.423 1434.01 244.885V244.885C1433.52 243.477 1431.82 242.791 1430.21 243.352V243.352C1430.17 243.365 1430.13 243.341 1430.12 243.301C1430.09 243.075 1430.03 242.848 1429.95 242.623C1429.25 240.612 1427.05 239.55 1425.04 240.252C1424.47 240.452 1423.98 240.772 1423.58 241.176ZM1461.36 259.149C1462.06 261.16 1461 263.359 1458.99 264.06C1456.98 264.762 1454.78 263.7 1454.08 261.689C1453.99 261.438 1453.93 261.184 1453.89 260.93C1453.82 260.368 1453.28 259.871 1452.71 259.815C1451.65 259.707 1450.72 259.078 1450.38 258.102C1450.31 257.896 1450.27 257.687 1450.25 257.477C1450.21 256.875 1449.75 256.183 1449.16 256.089C1449.14 256.086 1449.13 256.084 1449.11 256.081C1447.43 255.803 1446.18 254.896 1446.32 254.056C1446.46 253.215 1447.93 252.759 1449.61 253.037C1450.92 253.253 1451.96 253.846 1452.3 254.493C1452.32 254.532 1452.37 254.552 1452.41 254.537V254.537C1454.02 253.976 1455.72 254.662 1456.21 256.07C1456.28 256.279 1456.32 256.491 1456.34 256.704C1456.34 256.758 1456.4 256.795 1456.45 256.777V256.777C1458.46 256.076 1460.66 257.137 1461.36 259.149Z" fill="white" fill-opacity="0.5"/>
<g filter="url(#filter22_f_105_407)">
<circle cx="1105.04" cy="193.973" r="94.0581" fill="#861F2A" fill-opacity="0.68"/>
</g>
<circle cx="1132.23" cy="99.9146" r="138.828" fill="url(#paint19_radial_105_407)"/>
<circle cx="1132.23" cy="99.9146" r="138.828" fill="url(#paint20_radial_105_407)" style="mix-blend-mode:overlay"/>
<circle cx="1132.23" cy="99.9146" r="138.828" fill="url(#paint21_radial_105_407)" style="mix-blend-mode:soft-light"/>
<g filter="url(#filter23_f_105_407)">
<ellipse cx="1142.71" cy="36.6261" rx="30.2887" ry="60.0972" transform="rotate(-76.4765 1142.71 36.6261)" fill="#FF6A82"/>
</g>
<g filter="url(#filter24_f_105_407)">
<circle cx="1068.57" cy="69.9313" r="4.51808" fill="white"/>
</g>
<g filter="url(#filter25_f_105_407)">
<ellipse cx="1105.04" cy="8.20068" rx="3.64306" ry="2.5046" transform="rotate(-9.88469 1105.04 8.20068)" fill="white"/>
</g>
<g filter="url(#filter26_f_105_407)">
<ellipse cx="1116.7" cy="6.16812" rx="5.91997" ry="3.87075" transform="rotate(-9.88469 1116.7 6.16812)" fill="white"/>
</g>
<g filter="url(#filter27_f_105_407)">
<path fill-rule="evenodd" clip-rule="evenodd" d="M1091.65 44.208C1092.83 43.7959 1093.83 43.1028 1094.61 42.2299C1095.19 41.5835 1096.37 41.5185 1097.06 42.0421C1098.47 43.1133 1100.37 43.4803 1102.17 42.8538C1105.01 41.8607 1106.52 38.7472 1105.52 35.8996C1104.53 33.052 1101.42 31.5486 1098.57 32.5417C1098.07 32.7142 1097.62 32.9508 1097.21 33.2388C1096.51 33.7385 1095.33 33.632 1094.77 32.9663C1092.93 30.7547 1089.85 29.7994 1086.97 30.8022C1083.27 32.0933 1081.32 36.1409 1082.61 39.8428C1083.9 43.5447 1087.95 45.499 1091.65 44.208ZM1119.37 39.7511C1119.09 40.0351 1118.48 39.8992 1118.35 39.5217V39.5217C1117.36 36.6741 1114.25 35.1707 1111.4 36.1638C1108.55 37.1569 1107.05 40.2705 1108.04 43.1181C1109.03 45.9657 1112.15 47.469 1114.99 46.4759C1115.81 46.1933 1116.51 45.7388 1117.07 45.1676C1117.35 44.8836 1117.96 45.0195 1118.09 45.3971V45.3971C1119.08 48.2447 1122.2 49.748 1125.04 48.7549V48.7549C1125.62 48.5547 1126.29 48.7582 1126.72 49.1856C1127.8 50.252 1129.58 50.6436 1131.28 50.0504C1131.51 49.969 1131.73 49.8723 1131.95 49.762C1132.57 49.4377 1133.44 49.5267 1134.03 49.9125C1134.73 50.3772 1135.7 50.749 1136.8 50.9308C1139.18 51.3244 1141.27 50.6787 1141.47 49.4886C1141.67 48.2984 1139.9 47.0145 1137.52 46.6208C1137.01 46.5366 1136.51 46.4999 1136.04 46.506C1135.24 46.5166 1134.41 45.7641 1134.14 45.0026V45.0026C1133.45 43.0092 1131.04 42.0374 1128.76 42.8319V42.8319C1128.71 42.8504 1128.65 42.8161 1128.64 42.7606C1128.59 42.4395 1128.51 42.1184 1128.4 41.8007C1127.41 38.9531 1124.29 37.4497 1121.45 38.4428C1120.64 38.7255 1119.93 39.1799 1119.37 39.7511ZM1172.87 65.1985C1173.86 68.0461 1172.36 71.1596 1169.51 72.1528C1166.66 73.1459 1163.55 71.6425 1162.55 68.7949C1162.43 68.4395 1162.34 68.08 1162.3 67.7209C1162.19 66.9258 1161.42 66.2217 1160.63 66.1415C1159.11 65.9892 1157.81 65.0984 1157.32 63.7169C1157.22 63.4255 1157.16 63.1285 1157.14 62.8311C1157.09 61.9793 1156.43 60.9989 1155.59 60.8663C1155.57 60.8626 1155.55 60.8589 1155.52 60.8551C1153.14 60.4614 1151.37 59.1775 1151.57 57.9873C1151.77 56.7972 1153.85 56.1515 1156.23 56.5451C1158.08 56.8503 1159.56 57.6903 1160.04 58.607C1160.07 58.6622 1160.13 58.6896 1160.19 58.6691V58.6691C1162.47 57.8746 1164.88 58.8465 1165.57 60.8398C1165.68 61.1348 1165.74 61.4356 1165.76 61.7366C1165.76 61.8136 1165.84 61.8661 1165.91 61.8406V61.8406C1168.76 60.8475 1171.87 62.3509 1172.87 65.1985Z" fill="white" fill-opacity="0.5"/>
</g>
<mask id="mask1_105_407" style="mask-type:alpha" maskUnits="userSpaceOnUse" x="993" y="-39" width="279" height="278">
<circle cx="1132.23" cy="99.9146" r="138.828" fill="url(#paint22_radial_105_407)"/>
<circle cx="1132.23" cy="99.9146" r="138.828" fill="url(#paint23_radial_105_407)"/>
<circle cx="1132.23" cy="99.9146" r="138.828" fill="url(#paint24_radial_105_407)"/>
</mask>
<g mask="url(#mask1_105_407)">
<g filter="url(#filter28_f_105_407)">
<path d="M1240.8 65.4131C1240.8 65.4131 1269.51 108.09 1271.06 127.1C1236.14 321.473 1056.22 307.868 1112.77 253.966C1183.04 186.984 1240.8 184.512 1240.8 65.4131Z" fill="white" fill-opacity="0.08"/>
</g>
</g>
<g filter="url(#filter29_f_105_407)">
<g filter="url(#filter30_f_105_407)">
<circle cx="497.681" cy="100.524" r="79.7759" fill="#861F2A"/>
</g>
<circle cx="520.748" cy="20.7479" r="117.748" fill="url(#paint25_radial_105_407)"/>
<circle cx="520.748" cy="20.7479" r="117.748" fill="url(#paint26_radial_105_407)" style="mix-blend-mode:overlay"/>
<circle cx="520.748" cy="20.7479" r="117.748" fill="url(#paint27_radial_105_407)" style="mix-blend-mode:soft-light"/>
<g filter="url(#filter31_f_105_407)">
<ellipse cx="529.632" cy="-32.9305" rx="25.6896" ry="50.9718" transform="rotate(-76.4765 529.632 -32.9305)" fill="#FF6A82"/>
</g>
<g filter="url(#filter32_f_105_407)">
<circle cx="466.751" cy="-4.68262" r="3.83203" fill="white"/>
</g>
<g filter="url(#filter33_f_105_407)">
<path fill-rule="evenodd" clip-rule="evenodd" d="M486.326 -26.5C487.329 -26.8495 488.18 -27.4373 488.839 -28.1778C489.326 -28.726 490.329 -28.7812 490.913 -28.337C492.108 -27.4285 493.722 -27.1172 495.245 -27.6486C497.66 -28.4909 498.935 -31.1316 498.093 -33.5468C497.251 -35.9621 494.61 -37.2371 492.195 -36.3948C491.775 -36.2485 491.39 -36.0478 491.044 -35.8035C490.445 -35.3797 489.445 -35.4701 488.975 -36.0347C487.416 -37.9104 484.8 -38.7207 482.361 -37.8701C479.221 -36.7751 477.563 -33.3422 478.658 -30.2024C479.753 -27.0626 483.186 -25.405 486.326 -26.5ZM509.836 -30.2801C509.597 -30.0393 509.086 -30.1545 508.974 -30.4747V-30.4747C508.132 -32.8899 505.491 -34.165 503.076 -33.3227C500.661 -32.4804 499.386 -29.8396 500.228 -27.4244C501.07 -25.0092 503.711 -23.7341 506.126 -24.5764C506.814 -24.8162 507.409 -25.2016 507.889 -25.6861C508.128 -25.9269 508.639 -25.8117 508.75 -25.4915V-25.4915C509.593 -23.0763 512.234 -21.8012 514.649 -22.6435V-22.6435C515.136 -22.8133 515.707 -22.6407 516.073 -22.2783C516.989 -21.3738 518.494 -21.0416 519.937 -21.5448C520.135 -21.6138 520.324 -21.6958 520.503 -21.7893C521.031 -22.0644 521.774 -21.9889 522.271 -21.6616C522.869 -21.2675 523.691 -20.9522 524.623 -20.798C526.642 -20.4641 528.414 -21.0118 528.581 -22.0212C528.748 -23.0307 527.247 -24.1196 525.228 -24.4535C524.796 -24.525 524.375 -24.5561 523.979 -24.5509C523.295 -24.5419 522.593 -25.1802 522.368 -25.8261V-25.8261C521.778 -27.5167 519.734 -28.341 517.802 -27.6672V-27.6672C517.757 -27.6515 517.708 -27.6805 517.701 -27.7276C517.658 -27.9999 517.591 -28.2722 517.497 -28.5418C516.654 -30.957 514.014 -32.2321 511.598 -31.3898C510.911 -31.15 510.316 -30.7646 509.836 -30.2801ZM555.21 -8.69678C556.052 -6.28157 554.777 -3.64081 552.362 -2.7985C549.947 -1.95618 547.306 -3.23127 546.464 -5.64648C546.359 -5.94792 546.287 -6.25287 546.246 -6.5574C546.155 -7.2318 545.506 -7.82891 544.829 -7.897C543.545 -8.02617 542.438 -8.78173 542.029 -9.9534C541.943 -10.2005 541.892 -10.4524 541.875 -10.7046C541.826 -11.4271 541.274 -12.2586 540.559 -12.3712C540.539 -12.3742 540.519 -12.3774 540.5 -12.3807C538.481 -12.7145 536.98 -13.8035 537.147 -14.813C537.314 -15.8224 539.085 -16.3701 541.104 -16.0362C542.669 -15.7774 543.923 -15.0649 544.33 -14.2875C544.355 -14.2406 544.41 -14.2173 544.46 -14.2347V-14.2347C546.392 -14.9086 548.436 -14.0843 549.026 -12.3936C549.113 -12.1434 549.164 -11.8883 549.18 -11.633C549.184 -11.5677 549.25 -11.5232 549.312 -11.5448V-11.5448C551.727 -12.3871 554.368 -11.112 555.21 -8.69678Z" fill="white" fill-opacity="0.5"/>
</g>
<mask id="mask2_105_407" style="mask-type:alpha" maskUnits="userSpaceOnUse" x="403" y="-97" width="236" height="236">
<circle cx="520.748" cy="20.7479" r="117.748" fill="url(#paint28_radial_105_407)"/>
<circle cx="520.748" cy="20.7479" r="117.748" fill="url(#paint29_radial_105_407)"/>
<circle cx="520.748" cy="20.7479" r="117.748" fill="url(#paint30_radial_105_407)"/>
</mask>
<g mask="url(#mask2_105_407)">
<g filter="url(#filter34_f_105_407)">
<path d="M612.829 -8.51477C612.829 -8.51477 637.18 27.6817 638.496 43.8055C608.881 208.664 456.28 197.124 504.24 151.408C563.839 94.596 612.829 92.4993 612.829 -8.51477Z" fill="white" fill-opacity="0.08"/>
</g>
</g>
</g>
</g>
<defs>
<filter id="filter0_f_105_407" x="1358.89" y="114.613" width="702.165" height="815.449" filterUnits="userSpaceOnUse" color-interpolation-filters="sRGB">
<feFlood flood-opacity="0" result="BackgroundImageFix"/>
<feBlend mode="normal" in="SourceGraphic" in2="BackgroundImageFix" result="shape"/>
<feGaussianBlur stdDeviation="16" result="effect1_foregroundBlur_105_407"/>
</filter>
<filter id="filter1_f_105_407" x="1182.05" y="216.471" width="930.815" height="930.815" filterUnits="userSpaceOnUse" color-interpolation-filters="sRGB">
<feFlood flood-opacity="0" result="BackgroundImageFix"/>
<feBlend mode="normal" in="SourceGraphic" in2="BackgroundImageFix" result="shape"/>
<feGaussianBlur stdDeviation="124.612" result="effect1_foregroundBlur_105_407"/>
</filter>
<filter id="filter2_f_105_407" x="1457.15" y="103.614" width="553.798" height="433.239" filterUnits="userSpaceOnUse" color-interpolation-filters="sRGB">
<feFlood flood-opacity="0" result="BackgroundImageFix"/>
<feBlend mode="normal" in="SourceGraphic" in2="BackgroundImageFix" result="shape"/>
<feGaussianBlur stdDeviation="70.8023" result="effect1_foregroundBlur_105_407"/>
</filter>
<filter id="filter3_f_105_407" x="-313.741" y="-12.4589" width="747.147" height="747.148" filterUnits="userSpaceOnUse" color-interpolation-filters="sRGB">
<feFlood flood-opacity="0" result="BackgroundImageFix"/>
<feBlend mode="normal" in="SourceGraphic" in2="BackgroundImageFix" result="shape"/>
<feGaussianBlur stdDeviation="100.024" result="effect1_foregroundBlur_105_407"/>
</filter>
<filter id="filter4_f_105_407" x="-92.9281" y="-103.047" width="444.523" height="347.753" filterUnits="userSpaceOnUse" color-interpolation-filters="sRGB">
<feFlood flood-opacity="0" result="BackgroundImageFix"/>
<feBlend mode="normal" in="SourceGraphic" in2="BackgroundImageFix" result="shape"/>
<feGaussianBlur stdDeviation="56.8317" result="effect1_foregroundBlur_105_407"/>
</filter>
<filter id="filter5_f_105_407" x="-21.8423" y="117.876" width="28.7945" height="28.7948" filterUnits="userSpaceOnUse" color-interpolation-filters="sRGB">
<feFlood flood-opacity="0" result="BackgroundImageFix"/>
<feBlend mode="normal" in="SourceGraphic" in2="BackgroundImageFix" result="shape"/>
<feGaussianBlur stdDeviation="3.03102" result="effect1_foregroundBlur_105_407"/>
</filter>
<filter id="filter6_f_105_407" x="47.101" y="7.62814" width="25.4625" height="21.5184" filterUnits="userSpaceOnUse" color-interpolation-filters="sRGB">
<feFlood flood-opacity="0" result="BackgroundImageFix"/>
<feBlend mode="normal" in="SourceGraphic" in2="BackgroundImageFix" result="shape"/>
<feGaussianBlur stdDeviation="3.03102" result="effect1_foregroundBlur_105_407"/>
</filter>
<filter id="filter7_f_105_407" x="64.4594" y="1.29318" width="33.7843" height="26.6889" filterUnits="userSpaceOnUse" color-interpolation-filters="sRGB">
<feFlood flood-opacity="0" result="BackgroundImageFix"/>
<feBlend mode="normal" in="SourceGraphic" in2="BackgroundImageFix" result="shape"/>
<feGaussianBlur stdDeviation="3.03102" result="effect1_foregroundBlur_105_407"/>
</filter>
<filter id="filter8_f_105_407" x="11.6776" y="53.3061" width="179.901" height="89.6746" filterUnits="userSpaceOnUse" color-interpolation-filters="sRGB">
<feFlood flood-opacity="0" result="BackgroundImageFix"/>
<feBlend mode="normal" in="SourceGraphic" in2="BackgroundImageFix" result="shape"/>
<feGaussianBlur stdDeviation="3.02226" result="effect1_foregroundBlur_105_407"/>
</filter>
<filter id="filter9_f_105_407" x="44.8767" y="114.845" width="330.346" height="430.24" filterUnits="userSpaceOnUse" color-interpolation-filters="sRGB">
<feFlood flood-opacity="0" result="BackgroundImageFix"/>
<feBlend mode="normal" in="SourceGraphic" in2="BackgroundImageFix" result="shape"/>
<feGaussianBlur stdDeviation="4.54654" result="effect1_foregroundBlur_105_407"/>
</filter>
<filter id="filter10_f_105_407" x="1260.16" y="-24.6437" width="817.294" height="817.294" filterUnits="userSpaceOnUse" color-interpolation-filters="sRGB">
<feFlood flood-opacity="0" result="BackgroundImageFix"/>
<feBlend mode="normal" in="SourceGraphic" in2="BackgroundImageFix" result="shape"/>
<feGaussianBlur stdDeviation="109.415" result="effect1_foregroundBlur_105_407"/>
</filter>
<filter id="filter11_f_105_407" x="1501.71" y="-123.737" width="486.258" height="380.402" filterUnits="userSpaceOnUse" color-interpolation-filters="sRGB">
<feFlood flood-opacity="0" result="BackgroundImageFix"/>
<feBlend mode="normal" in="SourceGraphic" in2="BackgroundImageFix" result="shape"/>
<feGaussianBlur stdDeviation="62.1674" result="effect1_foregroundBlur_105_407"/>
</filter>
<filter id="filter12_f_105_407" x="550.447" y="70.77" width="960.169" height="960.169" filterUnits="userSpaceOnUse" color-interpolation-filters="sRGB">
<feFlood flood-opacity="0" result="BackgroundImageFix"/>
<feBlend mode="normal" in="SourceGraphic" in2="BackgroundImageFix" result="shape"/>
<feGaussianBlur stdDeviation="128.542" result="effect1_foregroundBlur_105_407"/>
</filter>
<filter id="filter13_f_105_407" x="589.576" y="42.4248" width="571.263" height="446.902" filterUnits="userSpaceOnUse" color-interpolation-filters="sRGB">
<feFlood flood-opacity="0" result="BackgroundImageFix"/>
<feBlend mode="normal" in="SourceGraphic" in2="BackgroundImageFix" result="shape"/>
<feGaussianBlur stdDeviation="73.0352" result="effect1_foregroundBlur_105_407"/>
</filter>
<filter id="filter14_f_105_407" x="769.529" y="184.655" width="32.7224" height="27.6536" filterUnits="userSpaceOnUse" color-interpolation-filters="sRGB">
<feFlood flood-opacity="0" result="BackgroundImageFix"/>
<feBlend mode="normal" in="SourceGraphic" in2="BackgroundImageFix" result="shape"/>
<feGaussianBlur stdDeviation="3.89521" result="effect1_foregroundBlur_105_407"/>
</filter>
<filter id="filter15_f_105_407" x="791.836" y="176.514" width="43.4163" height="34.2983" filterUnits="userSpaceOnUse" color-interpolation-filters="sRGB">
<feFlood flood-opacity="0" result="BackgroundImageFix"/>
<feBlend mode="normal" in="SourceGraphic" in2="BackgroundImageFix" result="shape"/>
<feGaussianBlur stdDeviation="3.89521" result="effect1_foregroundBlur_105_407"/>
</filter>
<filter id="filter17_f_105_407" x="1328.66" y="117.077" width="340.861" height="340.861" filterUnits="userSpaceOnUse" color-interpolation-filters="sRGB">
<feFlood flood-opacity="0" result="BackgroundImageFix"/>
<feBlend mode="normal" in="SourceGraphic" in2="BackgroundImageFix" result="shape"/>
<feGaussianBlur stdDeviation="52" result="effect1_foregroundBlur_105_407"/>
</filter>
<filter id="filter18_f_105_407" x="1354.97" y="172.404" width="170.175" height="133.129" filterUnits="userSpaceOnUse" color-interpolation-filters="sRGB">
<feFlood flood-opacity="0" result="BackgroundImageFix"/>
<feBlend mode="normal" in="SourceGraphic" in2="BackgroundImageFix" result="shape"/>
<feGaussianBlur stdDeviation="21.7567" result="effect1_foregroundBlur_105_407"/>
</filter>
<filter id="filter19_f_105_407" x="1408.58" y="214.774" width="9.74786" height="8.23785" filterUnits="userSpaceOnUse" color-interpolation-filters="sRGB">
<feFlood flood-opacity="0" result="BackgroundImageFix"/>
<feBlend mode="normal" in="SourceGraphic" in2="BackgroundImageFix" result="shape"/>
<feGaussianBlur stdDeviation="1.16035" result="effect1_foregroundBlur_105_407"/>
</filter>
<filter id="filter20_f_105_407" x="1415.22" y="212.349" width="12.9334" height="10.2172" filterUnits="userSpaceOnUse" color-interpolation-filters="sRGB">
<feFlood flood-opacity="0" result="BackgroundImageFix"/>
<feBlend mode="normal" in="SourceGraphic" in2="BackgroundImageFix" result="shape"/>
<feGaussianBlur stdDeviation="1.16035" result="effect1_foregroundBlur_105_407"/>
</filter>
<filter id="filter22_f_105_407" x="902.544" y="-8.51926" width="404.984" height="404.984" filterUnits="userSpaceOnUse" color-interpolation-filters="sRGB">
<feFlood flood-opacity="0" result="BackgroundImageFix"/>
<feBlend mode="normal" in="SourceGraphic" in2="BackgroundImageFix" result="shape"/>
<feGaussianBlur stdDeviation="54.2169" result="effect1_foregroundBlur_105_407"/>
</filter>
<filter id="filter23_f_105_407" x="1022.23" y="-57.6218" width="240.949" height="188.496" filterUnits="userSpaceOnUse" color-interpolation-filters="sRGB">
<feFlood flood-opacity="0" result="BackgroundImageFix"/>
<feBlend mode="normal" in="SourceGraphic" in2="BackgroundImageFix" result="shape"/>
<feGaussianBlur stdDeviation="30.8051" result="effect1_foregroundBlur_105_407"/>
</filter>
<filter id="filter24_f_105_407" x="1060.77" y="62.1273" width="15.6079" height="15.6079" filterUnits="userSpaceOnUse" color-interpolation-filters="sRGB">
<feFlood flood-opacity="0" result="BackgroundImageFix"/>
<feBlend mode="normal" in="SourceGraphic" in2="BackgroundImageFix" result="shape"/>
<feGaussianBlur stdDeviation="1.64294" result="effect1_foregroundBlur_105_407"/>
</filter>
<filter id="filter25_f_105_407" x="1098.14" y="2.36879" width="13.8017" height="11.6638" filterUnits="userSpaceOnUse" color-interpolation-filters="sRGB">
<feFlood flood-opacity="0" result="BackgroundImageFix"/>
<feBlend mode="normal" in="SourceGraphic" in2="BackgroundImageFix" result="shape"/>
<feGaussianBlur stdDeviation="1.64294" result="effect1_foregroundBlur_105_407"/>
</filter>
<filter id="filter26_f_105_407" x="1107.54" y="-1.06505" width="18.3125" height="14.4664" filterUnits="userSpaceOnUse" color-interpolation-filters="sRGB">
<feFlood flood-opacity="0" result="BackgroundImageFix"/>
<feBlend mode="normal" in="SourceGraphic" in2="BackgroundImageFix" result="shape"/>
<feGaussianBlur stdDeviation="1.64294" result="effect1_foregroundBlur_105_407"/>
</filter>
<filter id="filter27_f_105_407" x="1078.94" y="27.128" width="97.5132" height="48.6072" filterUnits="userSpaceOnUse" color-interpolation-filters="sRGB">
<feFlood flood-opacity="0" result="BackgroundImageFix"/>
<feBlend mode="normal" in="SourceGraphic" in2="BackgroundImageFix" result="shape"/>
<feGaussianBlur stdDeviation="1.63819" result="effect1_foregroundBlur_105_407"/>
</filter>
<filter id="filter28_f_105_407" x="1096.93" y="60.4843" width="179.061" height="233.207" filterUnits="userSpaceOnUse" color-interpolation-filters="sRGB">
<feFlood flood-opacity="0" result="BackgroundImageFix"/>
<feBlend mode="normal" in="SourceGraphic" in2="BackgroundImageFix" result="shape"/>
<feGaussianBlur stdDeviation="2.46441" result="effect1_foregroundBlur_105_407"/>
</filter>
<filter id="filter29_f_105_407" x="393" y="-107" width="255.496" height="297.3" filterUnits="userSpaceOnUse" color-interpolation-filters="sRGB">
<feFlood flood-opacity="0" result="BackgroundImageFix"/>
<feBlend mode="normal" in="SourceGraphic" in2="BackgroundImageFix" result="shape"/>
<feGaussianBlur stdDeviation="5" result="effect1_foregroundBlur_105_407"/>
</filter>
<filter id="filter30_f_105_407" x="325.936" y="-71.2209" width="343.489" height="343.489" filterUnits="userSpaceOnUse" color-interpolation-filters="sRGB">
<feFlood flood-opacity="0" result="BackgroundImageFix"/>
<feBlend mode="normal" in="SourceGraphic" in2="BackgroundImageFix" result="shape"/>
<feGaussianBlur stdDeviation="45.9844" result="effect1_foregroundBlur_105_407"/>
</filter>
<filter id="filter31_f_105_407" x="427.451" y="-112.868" width="204.362" height="159.874" filterUnits="userSpaceOnUse" color-interpolation-filters="sRGB">
<feFlood flood-opacity="0" result="BackgroundImageFix"/>
<feBlend mode="normal" in="SourceGraphic" in2="BackgroundImageFix" result="shape"/>
<feGaussianBlur stdDeviation="26.1275" result="effect1_foregroundBlur_105_407"/>
</filter>
<filter id="filter32_f_105_407" x="460.132" y="-11.3016" width="13.2379" height="13.2379" filterUnits="userSpaceOnUse" color-interpolation-filters="sRGB">
<feFlood flood-opacity="0" result="BackgroundImageFix"/>
<feBlend mode="normal" in="SourceGraphic" in2="BackgroundImageFix" result="shape"/>
<feGaussianBlur stdDeviation="1.39347" result="effect1_foregroundBlur_105_407"/>
</filter>
<filter id="filter33_f_105_407" x="475.542" y="-40.9865" width="82.7067" height="41.2264" filterUnits="userSpaceOnUse" color-interpolation-filters="sRGB">
<feFlood flood-opacity="0" result="BackgroundImageFix"/>
<feBlend mode="normal" in="SourceGraphic" in2="BackgroundImageFix" result="shape"/>
<feGaussianBlur stdDeviation="1.38944" result="effect1_foregroundBlur_105_407"/>
</filter>
<filter id="filter34_f_105_407" x="490.805" y="-12.6952" width="151.872" height="197.796" filterUnits="userSpaceOnUse" color-interpolation-filters="sRGB">
<feFlood flood-opacity="0" result="BackgroundImageFix"/>
<feBlend mode="normal" in="SourceGraphic" in2="BackgroundImageFix" result="shape"/>
<feGaussianBlur stdDeviation="2.0902" result="effect1_foregroundBlur_105_407"/>
</filter>
<radialGradient id="paint0_radial_105_407" cx="0" cy="0" r="1" gradientUnits="userSpaceOnUse" gradientTransform="translate(449.193 105.091) rotate(171.197) scale(1085.88 375.193)">
<stop stop-color="#F9C0C5"/>
<stop offset="0.990846" stop-color="#AB4C5A"/>
</radialGradient>
<radialGradient id="paint1_radial_105_407" cx="0" cy="0" r="1" gradientUnits="userSpaceOnUse" gradientTransform="translate(1616.51 399.614) rotate(25.085) scale(719.218 698.166)">
<stop offset="0.354167" stop-color="#E24171"/>
<stop offset="0.810035" stop-color="#7F212D"/>
</radialGradient>
<radialGradient id="paint2_radial_105_407" cx="0" cy="0" r="1" gradientUnits="userSpaceOnUse" gradientTransform="translate(1560.81 661.11) rotate(-53.858) scale(416.162 465.096)">
<stop stop-opacity="0.61"/>
<stop offset="1" stop-opacity="0"/>
</radialGradient>
<radialGradient id="paint3_radial_105_407" cx="0" cy="0" r="1" gradientUnits="userSpaceOnUse" gradientTransform="translate(1907.27 465.696) rotate(180) scale(544.706 438.26)">
<stop stop-color="white" stop-opacity="0"/>
<stop offset="0.827012" stop-color="white" stop-opacity="0"/>
<stop offset="1" stop-color="white"/>
</radialGradient>
<radialGradient id="paint4_radial_105_407" cx="0" cy="0" r="1" gradientUnits="userSpaceOnUse" gradientTransform="translate(34.99 134.546) rotate(25.085) scale(577.303 560.405)">
<stop offset="0.354167" stop-color="#E24171"/>
<stop offset="0.810035" stop-color="#7F212D"/>
</radialGradient>
<radialGradient id="paint5_radial_105_407" cx="0" cy="0" r="1" gradientUnits="userSpaceOnUse" gradientTransform="translate(-9.71766 344.444) rotate(-53.858) scale(334.046 373.324)">
<stop stop-opacity="0.61"/>
<stop offset="1" stop-opacity="0"/>
</radialGradient>
<radialGradient id="paint6_radial_105_407" cx="0" cy="0" r="1" gradientUnits="userSpaceOnUse" gradientTransform="translate(268.379 187.589) rotate(180) scale(437.225 351.783)">
<stop stop-color="white" stop-opacity="0"/>
<stop offset="0.827012" stop-color="white" stop-opacity="0"/>
<stop offset="1" stop-color="white"/>
</radialGradient>
<radialGradient id="paint7_radial_105_407" cx="0" cy="0" r="1" gradientUnits="userSpaceOnUse" gradientTransform="translate(34.99 134.546) rotate(25.085) scale(577.303 560.405)">
<stop offset="0.354167" stop-color="#E24171"/>
<stop offset="0.810035" stop-color="#7F212D"/>
</radialGradient>
<radialGradient id="paint8_radial_105_407" cx="0" cy="0" r="1" gradientUnits="userSpaceOnUse" gradientTransform="translate(-9.71766 344.444) rotate(-53.858) scale(334.046 373.324)">
<stop stop-opacity="0.61"/>
<stop offset="1" stop-opacity="0"/>
</radialGradient>
<radialGradient id="paint9_radial_105_407" cx="0" cy="0" r="1" gradientUnits="userSpaceOnUse" gradientTransform="translate(268.379 187.589) rotate(180) scale(437.225 351.783)">
<stop stop-color="white" stop-opacity="0"/>
<stop offset="0.827012" stop-color="white" stop-opacity="0"/>
<stop offset="1" stop-color="white"/>
</radialGradient>
<radialGradient id="paint10_radial_105_407" cx="0" cy="0" r="1" gradientUnits="userSpaceOnUse" gradientTransform="translate(1641.64 136.163) rotate(25.085) scale(631.504 613.019)">
<stop offset="0.354167" stop-color="#F88DA4"/>
<stop offset="0.810035" stop-color="#DA5251"/>
</radialGradient>
<radialGradient id="paint11_radial_105_407" cx="0" cy="0" r="1" gradientUnits="userSpaceOnUse" gradientTransform="translate(1592.73 365.768) rotate(-53.858) scale(365.408 408.374)">
<stop stop-opacity="0.61"/>
<stop offset="1" stop-opacity="0"/>
</radialGradient>
<radialGradient id="paint12_radial_105_407" cx="0" cy="0" r="1" gradientUnits="userSpaceOnUse" gradientTransform="translate(1896.94 194.186) rotate(180) scale(478.274 384.81)">
<stop stop-color="white" stop-opacity="0"/>
<stop offset="0.827012" stop-color="white" stop-opacity="0"/>
<stop offset="1" stop-color="white"/>
</radialGradient>
<radialGradient id="paint13_radial_105_407" cx="0" cy="0" r="1" gradientUnits="userSpaceOnUse" gradientTransform="translate(753.964 347.759) rotate(25.085) scale(741.9 720.184)">
<stop offset="0.354167" stop-color="#F88DA4"/>
<stop offset="0.810035" stop-color="#DA5251"/>
</radialGradient>
<radialGradient id="paint14_radial_105_407" cx="0" cy="0" r="1" gradientUnits="userSpaceOnUse" gradientTransform="translate(696.51 617.502) rotate(-53.858) scale(429.287 479.764)">
<stop stop-opacity="0.61"/>
<stop offset="1" stop-opacity="0"/>
</radialGradient>
<radialGradient id="paint15_radial_105_407" cx="0" cy="0" r="1" gradientUnits="userSpaceOnUse" gradientTransform="translate(1053.9 415.925) rotate(180) scale(561.884 452.081)">
<stop stop-color="white" stop-opacity="0"/>
<stop offset="0.827012" stop-color="white" stop-opacity="0"/>
<stop offset="1" stop-color="white"/>
</radialGradient>
<radialGradient id="paint16_radial_105_407" cx="0" cy="0" r="1" gradientUnits="userSpaceOnUse" gradientTransform="translate(1403.94 263.361) rotate(25.085) scale(221.007 214.538)">
<stop offset="0.354167" stop-color="#F88DA4"/>
<stop offset="0.810035" stop-color="#DA5251"/>
</radialGradient>
<radialGradient id="paint17_radial_105_407" cx="0" cy="0" r="1" gradientUnits="userSpaceOnUse" gradientTransform="translate(1386.83 343.716) rotate(-53.858) scale(127.881 142.918)">
<stop stop-opacity="0.61"/>
<stop offset="1" stop-opacity="0"/>
</radialGradient>
<radialGradient id="paint18_radial_105_407" cx="0" cy="0" r="1" gradientUnits="userSpaceOnUse" gradientTransform="translate(1493.29 283.667) rotate(180) scale(167.381 134.672)">
<stop stop-color="white" stop-opacity="0"/>
<stop offset="0.827012" stop-color="white" stop-opacity="0"/>
<stop offset="1" stop-color="white"/>
</radialGradient>
<radialGradient id="paint19_radial_105_407" cx="0" cy="0" r="1" gradientUnits="userSpaceOnUse" gradientTransform="translate(1091.57 71.1632) rotate(25.085) scale(312.921 303.762)">
<stop offset="0.354167" stop-color="#E24171"/>
<stop offset="0.810035" stop-color="#7F212D"/>
</radialGradient>
<radialGradient id="paint20_radial_105_407" cx="0" cy="0" r="1" gradientUnits="userSpaceOnUse" gradientTransform="translate(1067.34 184.937) rotate(-53.858) scale(181.066 202.357)">
<stop stop-opacity="0.61"/>
<stop offset="1" stop-opacity="0"/>
</radialGradient>
<radialGradient id="paint21_radial_105_407" cx="0" cy="0" r="1" gradientUnits="userSpaceOnUse" gradientTransform="translate(1218.08 99.9146) rotate(180) scale(236.994 190.68)">
<stop stop-color="white" stop-opacity="0"/>
<stop offset="0.827012" stop-color="white" stop-opacity="0"/>
<stop offset="1" stop-color="white"/>
</radialGradient>
<radialGradient id="paint22_radial_105_407" cx="0" cy="0" r="1" gradientUnits="userSpaceOnUse" gradientTransform="translate(1091.57 71.1632) rotate(25.085) scale(312.921 303.762)">
<stop offset="0.354167" stop-color="#E24171"/>
<stop offset="0.810035" stop-color="#7F212D"/>
</radialGradient>
<radialGradient id="paint23_radial_105_407" cx="0" cy="0" r="1" gradientUnits="userSpaceOnUse" gradientTransform="translate(1067.34 184.937) rotate(-53.858) scale(181.066 202.357)">
<stop stop-opacity="0.61"/>
<stop offset="1" stop-opacity="0"/>
</radialGradient>
<radialGradient id="paint24_radial_105_407" cx="0" cy="0" r="1" gradientUnits="userSpaceOnUse" gradientTransform="translate(1218.08 99.9146) rotate(180) scale(236.994 190.68)">
<stop stop-color="white" stop-opacity="0"/>
<stop offset="0.827012" stop-color="white" stop-opacity="0"/>
<stop offset="1" stop-color="white"/>
</radialGradient>
<radialGradient id="paint25_radial_105_407" cx="0" cy="0" r="1" gradientUnits="userSpaceOnUse" gradientTransform="translate(486.26 -3.63778) rotate(25.085) scale(265.406 257.637)">
<stop offset="0.354167" stop-color="#E24171"/>
<stop offset="0.810035" stop-color="#7F212D"/>
</radialGradient>
<radialGradient id="paint26_radial_105_407" cx="0" cy="0" r="1" gradientUnits="userSpaceOnUse" gradientTransform="translate(465.706 92.8597) rotate(-53.858) scale(153.572 171.63)">
<stop stop-opacity="0.61"/>
<stop offset="1" stop-opacity="0"/>
</radialGradient>
<radialGradient id="paint27_radial_105_407" cx="0" cy="0" r="1" gradientUnits="userSpaceOnUse" gradientTransform="translate(593.556 20.7479) rotate(180) scale(201.007 161.727)">
<stop stop-color="white" stop-opacity="0"/>
<stop offset="0.827012" stop-color="white" stop-opacity="0"/>
<stop offset="1" stop-color="white"/>
</radialGradient>
<radialGradient id="paint28_radial_105_407" cx="0" cy="0" r="1" gradientUnits="userSpaceOnUse" gradientTransform="translate(486.26 -3.63778) rotate(25.085) scale(265.406 257.637)">
<stop offset="0.354167" stop-color="#E24171"/>
<stop offset="0.810035" stop-color="#7F212D"/>
</radialGradient>
<radialGradient id="paint29_radial_105_407" cx="0" cy="0" r="1" gradientUnits="userSpaceOnUse" gradientTransform="translate(465.706 92.8597) rotate(-53.858) scale(153.572 171.63)">
<stop stop-opacity="0.61"/>
<stop offset="1" stop-opacity="0"/>
</radialGradient>
<radialGradient id="paint30_radial_105_407" cx="0" cy="0" r="1" gradientUnits="userSpaceOnUse" gradientTransform="translate(593.556 20.7479) rotate(180) scale(201.007 161.727)">
<stop stop-color="white" stop-opacity="0"/>
<stop offset="0.827012" stop-color="white" stop-opacity="0"/>
<stop offset="1" stop-color="white"/>
</radialGradient>
<clipPath id="clip0_105_407">
<rect width="1512" height="225" fill="white"/>
</clipPath>
</defs>
</svg>
